<?xml version="1.0" encoding="iso-8859-1"?>
<!-- Generator: Adobe Illustrator 19.0.0, SVG Export Plug-In . SVG Version: 6.00 Build 0)  -->
<svg version="1.1" id="Layer_1" xmlns="http://www.w3.org/2000/svg" xmlns:xlink="http://www.w3.org/1999/xlink" x="0px" y="0px"
	 viewBox="0 0 490 490" style="enable-background:new 0 0 490 490;" xml:space="preserve">
<g>
	<g id="XMLID_39_">
		<g>
			<rect x="10" y="115" style="fill:#23A24D;" width="470" height="260"/>
		</g>
		<g>
			<g>
				<path style="fill:#231F20;" d="M480,385H10c-5.523,0-10-4.477-10-10V115c0-5.523,4.477-10,10-10h470c5.523,0,10,4.477,10,10v260
					C490,380.523,485.523,385,480,385z M20,365h450V125H20V365z"/>
			</g>
		</g>
	</g>
	<g>
		<g id="XMLID_37_">
			<g>
				<path style="fill:#84BE55;" d="M445,195v100.7c-24.5,0.2-44.2,19.9-44.5,44.3H90c-0.1-24.6-20.1-44.6-44.8-44.6
					c-0.1,0-0.1,0-0.2,0V195c0.1,0,0.1,0,0.2,0c24.7,0,44.8-20.1,44.8-44.8c0-0.1,0-0.1,0-0.2h310c0,0.1,0,0.1,0,0.2
					c0,24.7,20.1,44.8,44.8,44.8C444.9,195,444.9,195,445,195z"/>
			</g>
			<g>
				<g>
					<path style="fill:#231F20;" d="M400.5,350H90c-5.507,0-9.978-4.452-10-9.959C79.922,320.939,64.311,305.4,45.2,305.4H45
						c-5.523,0-10-4.477-10-10V195c0-5.523,4.477-10,10-10h0.2c19.188,0,34.8-15.611,34.8-34.8V150c0-5.523,4.477-10,10-10h310
						c5.523,0,10,4.477,10,10v0.2c0,19.188,15.611,34.8,34.8,34.8h0.2c5.523,0,10,4.477,10,10v100.7c0,5.491-4.428,9.955-9.918,10
						c-19.157,0.156-34.347,15.277-34.583,34.423C410.432,345.597,405.975,350,400.5,350z M99.048,330h292.458
						c2.069-10.674,7.264-20.487,15.108-28.307c7.85-7.825,17.69-12.991,28.385-15.022v-82.548
						c-22.378-4.056-40.066-21.745-44.123-44.123H99.123C95.066,182.378,77.378,200.066,55,204.123v82.158
						C77.218,290.318,94.851,307.829,99.048,330z"/>
				</g>
			</g>
		</g>
	</g>
	<g>
		<rect x="430" y="325" style="fill:#231F20;" width="25" height="20"/>
	</g>
	<g>
		<rect x="430" y="145" style="fill:#231F20;" width="25" height="20"/>
	</g>
	<g>
		<rect x="35" y="145" style="fill:#231F20;" width="25" height="20"/>
	</g>
	<g>
		<rect x="35" y="325" style="fill:#231F20;" width="25" height="20"/>
	</g>
	<g id="XMLID_35_">
		<g>
			<path style="fill:#E7ECED;" d="M245,190c30.4,0,55,24.6,55,55s-24.6,55-55,55s-55-24.6-55-55S214.6,190,245,190z"/>
		</g>
		<g>
			<g>
				<path style="fill:#231F20;" d="M245,310c-35.841,0-65-29.159-65-65s29.159-65,65-65s65,29.159,65,65S280.841,310,245,310z
					 M245,200c-24.813,0-45,20.187-45,45s20.187,45,45,45s45-20.187,45-45S269.813,200,245,200z"/>
			</g>
		</g>
	</g>
	<g>
		<rect x="330" y="235" style="fill:#231F20;" width="40" height="20"/>
	</g>
	<g>
		<rect x="120" y="235" style="fill:#231F20;" width="40" height="20"/>
	</g>
</g>
<g>
</g>
<g>
</g>
<g>
</g>
<g>
</g>
<g>
</g>
<g>
</g>
<g>
</g>
<g>
</g>
<g>
</g>
<g>
</g>
<g>
</g>
<g>
</g>
<g>
</g>
<g>
</g>
<g>
</g>
</svg>
