<svg id="Layer_1" enable-background="new 0 0 512 512" height="512" viewBox="0 0 512 512" width="512" xmlns="http://www.w3.org/2000/svg"><path d="m504 331v18c0 5.52-4.48 10-10 10h-18c-5.52 0-10-4.48-10-10v-18c0-5.52 4.48-10 10-10h18c5.52 0 10 4.48 10 10z" fill="#89b0fb"/><path d="m504 32v18c0 5.52-4.48 10-10 10h-18c-5.52 0-10-4.48-10-10 0-6.295 0-11.705 0-18 0-5.52 4.48-10 10-10h18c5.52 0 10 4.48 10 10z" fill="#8ab2ff"/><path d="m464 476v18c0 5.52-4.48 10-10 10h-18c-5.52 0-10-4.48-10-10 0-6.295 0-11.705 0-18 0-5.52 4.48-10 10-10h18c5.52 0 10 4.48 10 10z" fill="#89b0fb"/><path d="m440 150.06v26.5c0 116.23-56.68 195.51-107.17 242.33-21.16 19.62-41.23 33.54-55.59 42.1-12.36 7.37-27.75 7.49-40.24.33-102.19-58.552-165-167.316-165-284.76v-26.5c0-7.86 5.72-14.48 13.47-15.79 37.801-6.423 66.53-39.289 66.53-78.87 0-5.53 4.48-10 10-10h188c5.52 0 10 4.47 10 10 0 39.667 28.821 72.448 66.53 78.87 7.75 1.31 13.47 7.93 13.47 15.79z" fill="#e2f2ff"/><path d="m98.12 176.19v26.5c0 82.12 30.65 159.54 83.45 218.65-68.452-60.812-109.57-149.921-109.57-244.78v-26.5c0-7.86 5.72-14.48 13.47-15.79 37.801-6.423 66.53-39.289 66.53-78.87 0-5.53 4.48-10 10-10h188c5.52 0 10 4.47 10 10 0 5.52.56 10.91 1.63 16.12h-173.51c-5.52 0-10 4.48-10 10 0 39.584-28.718 72.455-66.53 78.88-7.75 1.31-13.47 7.93-13.47 15.79z" fill="#f1f8fe"/><path d="m131 476v18c0 5.52-4.48 10-10 10h-18c-5.52 0-10-4.48-10-10v-18c0-5.52 4.48-10 10-10h18c5.52 0 10 4.48 10 10z" fill="#89b0fb"/><path d="m93 18v18c0 5.52-4.48 10-10 10-3.704 0-12.01 0-18 0-5.52 0-10-4.48-10-10v-18c0-5.52 4.48-10 10-10h18c5.52 0 10 4.48 10 10z" fill="#89b0fb"/><path d="m46 259v18c0 5.52-4.48 10-10 10-6.295 0-11.705 0-18 0-5.52 0-10-4.48-10-10v-18c0-5.52 4.48-10 10-10h18c5.52 0 10 4.48 10 10z" fill="#89b0fb"/><path d="m379 185.18v17.72c0 110.25-76.29 170.76-108.8 190.13-8.26 4.93-18.55 5.01-26.9.22-67.9-38.89-110.3-111.37-110.3-190.35v-17.72c0-5.25 3.82-9.68 9-10.56 25.219-4.273 44.48-26.235 44.48-52.72 0-3.69 2.99-6.68 6.68-6.68 137.214 0 127.624-.84 130.4 1.96 1.21 1.2 1.96 2.88 1.96 4.72 0 26.48 19.24 48.44 44.47 52.72 5.18.88 9.01 5.31 9.01 10.56z" fill="#a4d29c"/><path d="m308 238v52c0 5.523-4.477 10-10 10h-84c-5.523 0-10-4.477-10-10v-52c0-5.523 4.477-10 10-10h84c5.523 0 10 4.477 10 10z" fill="#fedf84"/><path d="m308 238v52c0 5.52-4.48 10-10 10h-84c-5.52 0-10-4.48-10-10 0-1.447-9.195-1 83-1 5.52 0 10-4.48 10-10v-51c7.211 0 11 4.845 11 10z" fill="#fed66b"/><path d="m440 150.06v26.5c0 116.23-56.68 195.51-107.17 242.33-21.16 19.62-41.23 33.54-55.59 42.1-12.36 7.37-27.75 7.49-40.24.33-4.5-2.58-8.93-5.26-13.27-8.03 9.33 1.7 19.12.03 27.51-4.97 14.36-8.56 34.43-22.48 55.59-42.1 50.49-46.82 107.17-126.1 107.17-242.33 0-28.653.518-29.037-1.56-33.38 4.52 1.67 9.23 2.93 14.09 3.76 7.75 1.31 13.47 7.93 13.47 15.79z" fill="#cfebfc"/><g fill="#2c2c3d"><path d="m73.447 215.584c4.747 0 8.425-4.106 7.978-8.798 0-3.636-3.796-7.769-8.737-7.281-4.207.404-7.642 4.081-7.183 8.882.397 4.134 3.872 7.197 7.942 7.197z"/><path d="m476 68h18c9.925 0 18-8.075 18-18v-18c0-9.925-8.075-18-18-18h-18c-9.184 0-18 7.008-18 19h-59.464c-4.418 0-8 3.582-8 8v66.81c-13.985-13.199-22.536-31.886-22.536-52.414 0-9.925-8.075-18-18-18h-188c-9.925 0-18 8.075-18 18 0 8.245-1.393 16.187-3.947 23.604h-60.053v-25h3c9.925 0 18-8.075 18-18v-18c0-9.925-8.075-18-18-18h-18c-9.925 0-18 8.075-18 18v18c0 9.587 7.541 17.426 17 17.949v33.051c0 4.418 3.582 8 8 8h60.207c-10.639 16.212-27.713 27.929-48.074 31.38-11.666 1.977-20.133 11.937-20.133 23.682 0 28.095-.003 26.973.006 28.487.026 4.32 3.503 7.951 8.048 7.951 4.418-.027 7.979-3.63 7.952-8.049-.008-1.357-.006-1.605-.006-28.39 0-3.913 2.863-7.238 6.808-7.906 42.41-7.189 73.192-43.676 73.192-86.759 0-1.103.897-2 2-2h188c1.103 0 2 .897 2 2 0 43.066 30.814 79.57 73.19 86.758 3.946.669 6.81 3.994 6.81 7.906v26.505c0 114.896-55.722 191.244-103.285 235.476-.832.5-23.319 22.863-55.57 42.079-9.862 5.875-22.188 5.978-32.165.263-78.418-44.923-134.424-121.346-153.656-209.673-.94-4.317-5.205-7.055-9.519-6.114-4.317.939-7.055 5.201-6.115 9.519 4.891 22.462 12.066 44.182 21.273 64.886h-57.963v-18c12.044 0 19-8.87 19-18v-18c0-9.925-8.075-18-18-18h-18c-9.925 0-18 8.075-18 18v18c0 9.184 7.008 18 19 18v26c0 4.418 3.582 8 8 8h73.588c13.069 25.657 29.376 49.521 48.473 71h-37.061c-4.418 0-8 3.582-8 8v50c-12.044 0-19 8.87-19 18v18c0 9.925 8.075 18 18 18h18c9.925 0 18-8.075 18-18v-18c0-9.184-7.008-18-19-18v-42h44.238c20.42 20.143 43.488 37.771 68.789 52.266 15.003 8.595 33.514 8.414 48.308-.4 8.93-5.321 24.892-15.642 43.492-31.286v48.419c0 4.418 3.582 8 8 8h85.173c0 12.044 8.87 19 18 19h18c9.925 0 18-8.075 18-18v-18c0-9.925-8.075-18-18-18h-18c-9.184 0-18 7.008-18 19h-77.173v-54.688c46.729-44.122 80.013-98.217 95.998-158.312h40.175v49c-12.044 0-19 8.87-19 18v18c0 9.925 8.075 18 18 18h18c9.925 0 18-8.075 18-18v-18c0-9.184-7.008-18-19-18v-57c0-4.418-3.582-8-8-8h-44.353c8.358-39.38 7.353-67.065 7.353-97.939 0-11.743-8.468-21.702-20.134-23.682-7.625-1.293-14.79-3.747-21.33-7.16v-70.219h51.464c0 12.044 8.87 19 18 19zm-413-32v-18c0-1.103.897-2 2-2h18c1.103 0 2 .897 2 2v18c0 1.103-.897 2-2 2h-18c-1.103 0-2-.897-2-2zm-47 241v-18c0-1.103.897-2 2-2h18c1.103 0 2 .897 2 2v18c0 1.103-.897 2-2 2h-18c-1.103 0-2-.897-2-2zm107 199v18c0 1.103-.897 2-2 2h-18c-1.103 0-2-.897-2-2v-18c0-1.103.897-2 2-2h18c1.103 0 2 .897 2 2zm311 0c0-1.103.897-2 2-2h18c1.103 0 2 .897 2 2v18c0 1.103-.897 2-2 2h-18c-1.103 0-2-.897-2-2zm62-145v18c0 1.103-.897 2-2 2h-18c-1.103 0-2-.897-2-2v-18c0-1.103.897-2 2-2h18c1.103 0 2 .897 2 2zm-22-299c0-1.103.897-2 2-2h18c1.103 0 2 .897 2 2v18c0 1.103-.897 2-2 2h-18c-1.103 0-2-.897-2-2z"/><path d="m339.052 314.599c-2.365 3.732-1.256 8.675 2.477 11.039 3.731 2.364 8.674 1.255 11.039-2.477 22.847-36.064 34.432-76.526 34.432-120.262v-17.718c0-9.147-6.589-16.904-15.668-18.445-21.909-3.716-37.81-22.571-37.81-44.835 0-8.098-6.588-14.686-14.685-14.686h-125.674c-8.097 0-14.685 6.588-14.685 14.686 0 22.266-15.901 41.122-37.81 44.836-9.079 1.539-15.668 9.296-15.668 18.445v17.717c0 81.301 43.807 156.9 114.325 197.298 10.882 6.232 24.281 6.075 34.968-.291 10.869-6.476 32.309-20.882 53.783-44.609 2.965-3.275 2.713-8.335-.563-11.3-3.274-2.964-8.334-2.713-11.3.563-20.073 22.179-40.011 35.583-50.11 41.6-5.773 3.44-12.987 3.495-18.826.153-65.554-37.553-106.277-107.834-106.277-183.414v-17.717c0-1.317.985-2.44 2.342-2.67 29.198-4.95 50.506-29.774 51.122-59.297h123.071c.616 29.52 21.924 54.344 51.12 59.296 1.358.23 2.344 1.354 2.344 2.67.001 23.997 3.087 74.116-31.947 129.418z"/><path d="m256 156c-24.262 0-44 19.738-44 44v20h-8c-4.418 0-8 3.582-8 8v72c0 4.418 3.582 8 8 8h104c4.418 0 8-3.582 8-8v-72c0-4.418-3.582-8-8-8h-8v-20c0-24.262-19.738-44-44-44zm-28 44c0-15.439 12.561-28 28-28s28 12.561 28 28v20h-56zm72 92h-88v-56h88z"/><path d="m256 253c-4.418 0-8 3.582-8 8v7c0 4.418 3.582 8 8 8s8-3.582 8-8v-7c0-4.418-3.582-8-8-8z"/></g></svg>