<?xml version="1.0" encoding="UTF-8"?>
<svg width="512px" height="512px" viewBox="0 0 512 512" version="1.1" xmlns="http://www.w3.org/2000/svg" xmlns:xlink="http://www.w3.org/1999/xlink">
    <!-- Generator: Sketch 55.2 (78181) - https://sketchapp.com -->
    <title>pod-disabled</title>
    <desc>Created with Sketch.</desc>
    <g id="Page-1" stroke="none" stroke-width="1" fill="none" fill-rule="evenodd">
        <g id="pod-disabled" fill-rule="nonzero">
            <path d="M504,331 L504,349 C504,354.52 499.52,359 494,359 L476,359 C470.48,359 466,354.52 466,349 L466,331 C466,325.48 470.48,321 476,321 L494,321 C499.52,321 504,325.48 504,331 Z" id="Path" fill="#89B0FB"></path>
            <path d="M504,32 L504,50 C504,55.52 499.52,60 494,60 L476,60 C470.48,60 466,55.52 466,50 C466,43.705 466,38.295 466,32 C466,26.48 470.48,22 476,22 L494,22 C499.52,22 504,26.48 504,32 Z" id="Path" fill="#8AB2FF"></path>
            <path d="M464,476 L464,494 C464,499.52 459.52,504 454,504 L436,504 C430.48,504 426,499.52 426,494 C426,487.705 426,482.295 426,476 C426,470.48 430.48,466 436,466 L454,466 C459.52,466 464,470.48 464,476 Z" id="Path" fill="#89B0FB"></path>
            <path d="M440,150.06 L440,176.56 C440,292.79 383.32,372.07 332.83,418.89 C311.67,438.51 291.6,452.43 277.24,460.99 C264.88,468.36 249.49,468.48 237,461.32 C134.81,402.768 72,294.004 72,176.56 L72,150.06 C72,142.2 77.72,135.58 85.47,134.27 C123.271,127.847 152,94.981 152,55.4 C152,49.87 156.48,45.4 162,45.4 L350,45.4 C355.52,45.4 360,49.87 360,55.4 C360,95.067 388.821,127.848 426.53,134.27 C434.28,135.58 440,142.2 440,150.06 Z" id="Path" fill="#E2F2FF"></path>
            <path d="M98.12,176.19 L98.12,202.69 C98.12,284.81 128.77,362.23 181.57,421.34 C113.118,360.528 72,271.419 72,176.56 L72,150.06 C72,142.2 77.72,135.58 85.47,134.27 C123.271,127.847 152,94.981 152,55.4 C152,49.87 156.48,45.4 162,45.4 L350,45.4 C355.52,45.4 360,49.87 360,55.4 C360,60.92 360.56,66.31 361.63,71.52 L188.12,71.52 C182.6,71.52 178.12,76 178.12,81.52 C178.12,121.104 149.402,153.975 111.59,160.4 C103.84,161.71 98.12,168.33 98.12,176.19 Z" id="Path" fill="#F1F8FE"></path>
            <path d="M131,476 L131,494 C131,499.52 126.52,504 121,504 L103,504 C97.48,504 93,499.52 93,494 L93,476 C93,470.48 97.48,466 103,466 L121,466 C126.52,466 131,470.48 131,476 Z" id="Path" fill="#89B0FB"></path>
            <path d="M93,18 L93,36 C93,41.52 88.52,46 83,46 C79.296,46 70.99,46 65,46 C59.48,46 55,41.52 55,36 L55,18 C55,12.48 59.48,8 65,8 L83,8 C88.52,8 93,12.48 93,18 Z" id="Path" fill="#89B0FB"></path>
            <path d="M46,259 L46,277 C46,282.52 41.52,287 36,287 C29.705,287 24.295,287 18,287 C12.48,287 8,282.52 8,277 L8,259 C8,253.48 12.48,249 18,249 L36,249 C41.52,249 46,253.48 46,259 Z" id="Path" fill="#89B0FB"></path>
            <path d="M379,185.18 L379,202.9 C379,313.15 302.71,373.66 270.2,393.03 C261.94,397.96 251.65,398.04 243.3,393.25 C175.4,354.36 133,281.88 133,202.9 L133,185.18 C133,179.93 136.82,175.5 142,174.62 C167.219,170.347 186.48,148.385 186.48,121.9 C186.48,118.21 189.47,115.22 193.16,115.22 C330.374,115.22 320.784,114.38 323.56,117.18 C324.77,118.38 325.52,120.06 325.52,121.9 C325.52,148.38 344.76,170.34 369.99,174.62 C375.17,175.5 379,179.93 379,185.18 Z" id="Path" fill="#D2C09C"></path>
            <path d="M308,238 L308,290 C308,295.523 303.523,300 298,300 L214,300 C208.477,300 204,295.523 204,290 L204,238 C204,232.477 208.477,228 214,228 L298,228 C303.523,228 308,232.477 308,238 Z" id="Path" fill="#FEDF84"></path>
            <path d="M308,238 L308,290 C308,295.52 303.52,300 298,300 L214,300 C208.48,300 204,295.52 204,290 C204,288.553 194.805,289 287,289 C292.52,289 297,284.52 297,279 L297,228 C304.211,228 308,232.845 308,238 Z" id="Path" fill="#FED66B"></path>
            <path d="M440,150.06 L440,176.56 C440,292.79 383.32,372.07 332.83,418.89 C311.67,438.51 291.6,452.43 277.24,460.99 C264.88,468.36 249.49,468.48 237,461.32 C232.5,458.74 228.07,456.06 223.73,453.29 C233.06,454.99 242.85,453.32 251.24,448.32 C265.6,439.76 285.67,425.84 306.83,406.22 C357.32,359.4 414,280.12 414,163.89 C414,135.237 414.518,134.853 412.44,130.51 C416.96,132.18 421.67,133.44 426.53,134.27 C434.28,135.58 440,142.2 440,150.06 Z" id="Path" fill="#CFEBFC"></path>
            <g id="Group" fill="#2C2C3D">
                <path d="M73.447,215.584 C78.194,215.584 81.872,211.478 81.425,206.786 C81.425,203.15 77.629,199.017 72.688,199.505 C68.481,199.909 65.046,203.586 65.505,208.387 C65.902,212.521 69.377,215.584 73.447,215.584 Z" id="Path"></path>
                <path d="M476,68 L494,68 C503.925,68 512,59.925 512,50 L512,32 C512,22.075 503.925,14 494,14 L476,14 C466.816,14 458,21.008 458,33 L398.536,33 C394.118,33 390.536,36.582 390.536,41 L390.536,107.81 C376.551,94.611 368,75.924 368,55.396 C368,45.471 359.925,37.396 350,37.396 L162,37.396 C152.075,37.396 144,45.471 144,55.396 C144,63.641 142.607,71.583 140.053,79 L80,79 L80,54 L83,54 C92.925,54 101,45.925 101,36 L101,18 C101,8.075 92.925,0 83,0 L65,0 C55.075,0 47,8.075 47,18 L47,36 C47,45.587 54.541,53.426 64,53.949 L64,87 C64,91.418 67.582,95 72,95 L132.207,95 C121.568,111.212 104.494,122.929 84.133,126.38 C72.467,128.357 64,138.317 64,150.062 C64,178.157 63.997,177.035 64.006,178.549 C64.032,182.869 67.509,186.5 72.054,186.5 C76.472,186.473 80.033,182.87 80.006,178.451 C79.998,177.094 80,176.846 80,150.061 C80,146.148 82.863,142.823 86.808,142.155 C129.218,134.966 160,98.479 160,55.396 C160,54.293 160.897,53.396 162,53.396 L350,53.396 C351.103,53.396 352,54.293 352,55.396 C352,98.462 382.814,134.966 425.19,142.154 C429.136,142.823 432,146.148 432,150.06 L432,176.565 C432,291.461 376.278,367.809 328.715,412.041 C327.883,412.541 305.396,434.904 273.145,454.12 C263.283,459.995 250.957,460.098 240.98,454.383 C162.562,409.46 106.556,333.037 87.324,244.71 C86.384,240.393 82.119,237.655 77.805,238.596 C73.488,239.535 70.75,243.797 71.69,248.115 C76.581,270.577 83.756,292.297 92.963,313.001 L35,313.001 L35,295.001 C47.044,295.001 54,286.131 54,277.001 L54,259.001 C54,249.076 45.925,241.001 36,241.001 L18,241.001 C8.075,241.001 3.55271368e-14,249.076 3.55271368e-14,259.001 L3.55271368e-14,277.001 C3.55271368e-14,286.185 7.008,295.001 19,295.001 L19,321.001 C19,325.419 22.582,329.001 27,329.001 L100.588,329.001 C113.657,354.658 129.964,378.522 149.061,400.001 L112,400.001 C107.582,400.001 104,403.583 104,408.001 L104,458.001 C91.956,458.001 85,466.871 85,476.001 L85,494.001 C85,503.926 93.075,512.001 103,512.001 L121,512.001 C130.925,512.001 139,503.926 139,494.001 L139,476.001 C139,466.817 131.992,458.001 120,458.001 L120,416.001 L164.238,416.001 C184.658,436.144 207.726,453.772 233.027,468.267 C248.03,476.862 266.541,476.681 281.335,467.867 C290.265,462.546 306.227,452.225 324.827,436.581 L324.827,485 C324.827,489.418 328.409,493 332.827,493 L418,493 C418,505.044 426.87,512.001 436,512.001 L454,512.001 C463.925,512.001 472,503.925 472,494 L472,476 C472,466.075 463.925,458 454,458 L436,458 C426.816,458 418,465.008 418,477 L340.827,477 L340.827,422.312 C387.556,378.19 420.84,324.095 436.825,264 L477,264 L477,313 C464.956,313 458,321.87 458,331 L458,349 C458,358.925 466.075,367 476,367 L494,367 C503.925,367 512,358.925 512,349 L512,331 C512,321.816 504.992,313 493,313 L493,256 C493,251.582 489.418,248 485,248 L440.647,248 C449.005,208.62 448,180.935 448,150.061 C448,138.318 439.532,128.359 427.866,126.379 C420.241,125.086 413.076,122.632 406.536,119.219 L406.536,49 L458,49 C458,61.044 466.87,68 476,68 Z M63,36 L63,18 C63,16.897 63.897,16 65,16 L83,16 C84.103,16 85,16.897 85,18 L85,36 C85,37.103 84.103,38 83,38 L65,38 C63.897,38 63,37.103 63,36 Z M16,277 L16,259 C16,257.897 16.897,257 18,257 L36,257 C37.103,257 38,257.897 38,259 L38,277 C38,278.103 37.103,279 36,279 L18,279 C16.897,279 16,278.103 16,277 Z M123,476 L123,494 C123,495.103 122.103,496 121,496 L103,496 C101.897,496 101,495.103 101,494 L101,476 C101,474.897 101.897,474 103,474 L121,474 C122.103,474 123,474.897 123,476 Z M434,476 C434,474.897 434.897,474 436,474 L454,474 C455.103,474 456,474.897 456,476 L456,494 C456,495.103 455.103,496 454,496 L436,496 C434.897,496 434,495.103 434,494 L434,476 Z M496,331 L496,349 C496,350.103 495.103,351 494,351 L476,351 C474.897,351 474,350.103 474,349 L474,331 C474,329.897 474.897,329 476,329 L494,329 C495.103,329 496,329.897 496,331 Z M474,32 C474,30.897 474.897,30 476,30 L494,30 C495.103,30 496,30.897 496,32 L496,50 C496,51.103 495.103,52 494,52 L476,52 C474.897,52 474,51.103 474,50 L474,32 Z" id="Shape"></path>
                <path d="M339.052,314.599 C336.687,318.331 337.796,323.274 341.529,325.638 C345.26,328.002 350.203,326.893 352.568,323.161 C375.415,287.097 387,246.635 387,202.899 L387,185.181 C387,176.034 380.411,168.277 371.332,166.736 C349.423,163.02 333.522,144.165 333.522,121.901 C333.522,113.803 326.934,107.215 318.837,107.215 L193.163,107.215 C185.066,107.215 178.478,113.803 178.478,121.901 C178.478,144.167 162.577,163.023 140.668,166.737 C131.589,168.276 125,176.033 125,185.182 L125,202.899 C125,284.2 168.807,359.799 239.325,400.197 C250.207,406.429 263.606,406.272 274.293,399.906 C285.162,393.43 306.602,379.024 328.076,355.297 C331.041,352.022 330.789,346.962 327.513,343.997 C324.239,341.033 319.179,341.284 316.213,344.56 C296.14,366.739 276.202,380.143 266.103,386.16 C260.33,389.6 253.116,389.655 247.277,386.313 C181.723,348.76 141,278.479 141,202.899 L141,185.182 C141,183.865 141.985,182.742 143.342,182.512 C172.54,177.562 193.848,152.738 194.464,123.215 L317.535,123.215 C318.151,152.735 339.459,177.559 368.655,182.511 C370.013,182.741 370.999,183.865 370.999,185.181 C371,209.178 374.086,259.297 339.052,314.599 L339.052,314.599 Z" id="Path"></path>
                <path d="M256,136 C231.738,136 212,155.738 212,180 L212,220 L204,220 C199.582,220 196,223.582 196,228 L196,300 C196,304.418 199.582,308 204,308 L308,308 C312.418,308 316,304.418 316,300 L316,228 C316,223.582 312.418,220 308,220 L300,220 L300,180 C300,155.738 280.262,136 256,136 Z M228,180 C228,164.561 240.561,152 256,152 C271.439,152 284,164.561 284,180 L284,220 L228,220 L228,180 Z M300,292 L212,292 L212,236 L300,236 L300,292 Z M212,199 C214.666667,206 217.333333,209.5 220,209.5 C222.666667,209.5 225.333333,206 228,199 L228,220 L212,220 L212,199 Z" id="Shape"></path>
                <path d="M256,253 C251.582,253 248,256.582 248,261 L248,268 C248,272.418 251.582,276 256,276 C260.418,276 264,272.418 264,268 L264,261 C264,256.582 260.418,253 256,253 Z" id="Path"></path>
            </g>
        </g>
    </g>
</svg>